<svg xmlns="http://www.w3.org/2000/svg" width="523" height="112" viewBox="0 0 523 112">
    <defs>
        <linearGradient id="a" x1="-38.361%" x2="77.876%" y1="49.998%" y2="49.998%">
            <stop offset="0%" stop-color="#FFF" stop-opacity=".9"/>
            <stop offset="100%" stop-color="#FFF"/>
        </linearGradient>
        <linearGradient id="b" x1=".012%" x2="65.759%" y1="50.005%" y2="50.005%">
            <stop offset="0%"/>
            <stop offset="100%" stop-color="#073D4F"/>
        </linearGradient>
        <linearGradient id="c" x1="50%" x2="50%" y1="12.869%" y2="74.753%">
            <stop offset="0%" stop-color="#FFF" stop-opacity=".9"/>
            <stop offset="100%" stop-color="#FFF"/>
        </linearGradient>
        <linearGradient id="d" x1="-.002%" x2="99.998%" y1="49.999%" y2="49.999%">
            <stop offset="0%" stop-color="#073D4F"/>
            <stop offset="100%"/>
        </linearGradient>
        <linearGradient id="e" x1="104.641%" x2="27.046%" y1="50%" y2="50%">
            <stop offset="0%" stop-color="#FFF" stop-opacity=".9"/>
            <stop offset="100%" stop-color="#FFF"/>
        </linearGradient>
        <linearGradient id="f" x1="49.999%" x2="49.999%" y1="113.107%" y2="45.976%">
            <stop offset="0%" stop-color="#FFF" stop-opacity=".9"/>
            <stop offset="100%" stop-color="#FFF"/>
        </linearGradient>
        <linearGradient id="g" x1="-.013%" x2="62.145%" y1="50.002%" y2="50.002%">
            <stop offset="0%"/>
            <stop offset="100%" stop-color="#073D4F"/>
        </linearGradient>
        <linearGradient id="h" x1="-34.901%" x2="64.164%" y1="66.205%" y2="47.076%">
            <stop offset="0%" stop-color="#FFF" stop-opacity=".9"/>
            <stop offset="100%" stop-color="#FFF"/>
        </linearGradient>
        <linearGradient id="i" x1=".049%" x2="99.998%" y1="49.998%" y2="49.998%">
            <stop offset="0%"/>
            <stop offset="100%" stop-color="#073D4F"/>
        </linearGradient>
        <linearGradient id="j" x1=".049%" x2="99.998%" y1="50.001%" y2="50.001%">
            <stop offset="0%"/>
            <stop offset="100%" stop-color="#073D4F"/>
        </linearGradient>
    </defs>
    <g fill="none" fill-rule="evenodd">
        <path fill="#FFF" d="M54.246 0C42.619.067 30.91 5.444 19.934 16.42l-3.496 3.497c-21.702 21.702-22.131 46.986 0 69.116l5.613 5.614c21.157 21.157 46.519 22.599 69.116 0l3.498-3.497c21.909-21.909 22.181-46.935 0-69.116l-5.614-5.613C78.275 5.643 66.532.069 54.691 0h-.445zm12.667 43.235V30.884a.81.81 0 0 1 .811-.811h11.54c.895 0 1.622.726 1.622 1.621v11.541a.812.812 0 0 1-.811.811H67.724a.812.812 0 0 1-.811-.811zm-36.877.001V31.694a1.62 1.62 0 0 1 1.621-1.621h29.98a.81.81 0 0 1 .81.811v49.229a.81.81 0 0 1-.81.812H49.285a.812.812 0 0 1-.811-.812l-.001-35.256a.811.811 0 0 0-.811-.81H30.847a.81.81 0 0 1-.811-.811zm36.877 18.438V49.323a.81.81 0 0 1 .811-.81h12.351a.81.81 0 0 1 .811.81v12.351a.812.812 0 0 1-.811.811H67.724a.812.812 0 0 1-.811-.811zm-36.877 0v-12.35a.81.81 0 0 1 .811-.811h12.351a.81.81 0 0 1 .81.81v12.351a.81.81 0 0 1-.81.811H30.847a.81.81 0 0 1-.811-.811zm36.879 18.439l-.002-12.35c0-.448.364-.811.812-.811h12.35c.447 0 .811.363.811.81v11.541c0 .896-.727 1.622-1.622 1.622H67.725a.81.81 0 0 1-.81-.812zm-36.879-.81v-11.54a.81.81 0 0 1 .811-.811h12.351a.81.81 0 0 1 .811.811v12.35a.81.81 0 0 1-.81.812H31.657a1.62 1.62 0 0 1-1.621-1.622z"/>
        <path fill="url(#a)" d="M10.878 18.085v11.14h1.999c0-.172.14-.311.312-.311h15.499c.171 0 .312-.14.312-.312v-9.894a.313.313 0 0 0-.312-.312H13.189a.312.312 0 0 1-.312-.311h-1.999z" transform="translate(489 33)"/>
        <path fill="url(#b)" d="M13.544 29.003h-.355a.306.306 0 0 0-.302.287V18.197l.657 10.806z" opacity=".1" transform="translate(489 33)"/>
        <path fill="#FFF" d="M520.562 69.792h-18.373a.312.312 0 0 1-.312-.312V44.294c0-.172.14-.312.312-.312h18.371a.312.312 0 0 0 .306-.252l1.905-9.76a.311.311 0 0 0-.306-.371h-32.856a.312.312 0 0 0-.312.312v45.553c0 .172.14.312.312.312h32.853a.312.312 0 0 0 .306-.374l-1.901-9.36a.311.311 0 0 0-.305-.25"/>
        <path fill="url(#c)" d="M.475.96a.618.618 0 0 0-.061.262v44.93c0 .345.279.625.623.625H12.09c.344 0 .623-.28.623-.624V23.36c0-.318.413-.42.573-.156h.486L3.704.96H.475z" transform="translate(437 33)"/>
        <path fill="#FFF" d="M475.578 33.599h-10.844a.623.623 0 0 0-.623.623V55.83c0 .274-.3.376-.488.238-.037-.028-.078-.05-.103-.098l-12.936-22.025a.622.622 0 0 0-.558-.346h-11.99a.621.621 0 0 0-.561.362l12.81 22.243c.006.009.015.01.02.019l13.355 23.204a.622.622 0 0 0 .56.349h11.358c.344 0 .623-.28.623-.624v-44.93a.623.623 0 0 0-.623-.623"/>
        <path fill="url(#d)" d="M.494 1.022l-.038.02c-.019.059 12.257 22.503 12.257 22.503v-.184c0-.31.386-.406.554-.172L.494 1.022z" opacity=".1" transform="translate(437 33)"/>
        <path fill="#FFF" d="M273.812 33.599h-11.264a.623.623 0 0 0-.623.624V62.07c0 5.39-.978 8.12-6.849 8.12-5.801 0-6.849-2.73-6.849-8.12V34.223a.623.623 0 0 0-.623-.624H236.34a.623.623 0 0 0-.623.624v29.113c0 11.647 7.199 17.039 19.359 17.039 12.09 0 19.359-5.392 19.359-17.04V34.224a.623.623 0 0 0-.623-.624M413.316 62.203c0 5.458-1.816 8.187-7.617 8.187-5.87 0-7.617-2.729-7.617-8.187v-10.7c0-5.525 1.747-8.187 7.617-8.187 5.8 0 7.617 2.662 7.617 8.187v10.7zM405.699 33c-12.09 0-20.198 5.326-20.198 17.04v13.296c0 11.647 8.038 17.04 20.198 17.04 12.09 0 20.128-5.393 20.128-17.04V50.038c0-11.713-8.037-17.039-20.128-17.039z"/>
        <g>
            <path fill="url(#e)" d="M.987.599a.622.622 0 0 0-.623.623v44.93c0 .345.278.625.623.625h11.332c.344 0 .624-.28.624-.624V29.776c0-.344.279-.623.623-.623h12.382c.222 0 .383.136.494.31.061.097.129.19.129.313v-.001h2V17.615h-2a.62.62 0 0 1-.623.623H13.566a.623.623 0 0 1-.623-.623V1.222a.624.624 0 0 0-.624-.623H.987z" transform="translate(335 33)"/>
            <path fill="#FFF" d="M373.528 33.599h-11.333a.623.623 0 0 0-.624.623V79.152c0 .344.279.624.624.624h11.333c.344 0 .623-.28.623-.624v-44.93a.623.623 0 0 0-.623-.623"/>
        </g>
        <g>
            <path fill="url(#f)" d="M11.273.664v10.672h2c0-.344.279-.622.623-.622h6.575c4.753 0 6.011 1.397 6.011 5.192v1.216c0 3.793-1.258 5.19-6.011 5.19h-6.575a.622.622 0 0 1-.623-.623h-2v10.764h2c0-.344.279-.623.623-.623h6.157c13.208 0 18.519-4.592 18.519-14.044V14.574c0-9.45-5.311-13.91-18.519-13.91h-8.78z" transform="translate(286 33)"/>
            <path fill="#FFF" d="M299.273 44.336V33.663h-11.956a.622.622 0 0 0-.623.623V77.97c0 1.592.278 1.871.623 1.871h11.333a.623.623 0 0 0 .623-.624v-34.88z"/>
            <path fill="url(#g)" d="M13.894 31.83a.622.622 0 0 0-.621.623V21.689l.621 10.142z" opacity=".1" transform="translate(286 33)"/>
        </g>
        <g>
            <path fill="url(#h)" d="M11.26.684v10.673h1.999c0-.344.279-.623.624-.623h6.296c4.753 0 6.01 1.398 6.01 5.192v1.016c0 3.86-1.257 5.19-6.01 5.19h-6.296a.623.623 0 0 1-.624-.622H11.26v10.697h1.999c0-.344.279-.622.624-.622h3.679c.233 0 .448.13.555.337l8.806 14.602a.623.623 0 0 0 .554.337h11.741a.624.624 0 0 0 .555-.907l-9.447-16a.309.309 0 0 1 .167-.425c6.161-2.485 7.647-6.814 7.647-11.723v-3.212c0-9.451-5.172-13.91-18.381-13.91H11.26z" transform="translate(187 33)"/>
            <path fill="#FFF" d="M200.26 44.357V33.684h-11.957a.623.623 0 0 0-.623.624V77.99c0 1.592.28 1.87.623 1.87h11.333a.623.623 0 0 0 .623-.623V44.357z"/>
            <path fill="url(#i)" d="M13.883 10.734h.377L13.259.684v10.674c0-.345.28-.624.624-.624" opacity=".1" transform="translate(187 33)"/>
            <path fill="url(#j)" d="M14.26 31.584s-1.001-9.73-1.001-10.074v10.697c0-.344.28-.623.624-.623h.377z" opacity=".1" transform="translate(187 33)"/>
        </g>
        <path fill="#FFF" d="M139.624 33.769h24.402c.344 0 .623.279.623.624v44.93a.623.623 0 0 1-.623.623h-11.334a.624.624 0 0 1-.623-.623V44.152h-12.445a.622.622 0 0 1-.623-.623v-9.136c0-.345.278-.624.623-.624zm38.717 0c.345 0 .623.279.623.624v9.136a.622.622 0 0 1-.623.623h-9.33a.62.62 0 0 1-.62-.62v-9.143a.62.62 0 0 1 .62-.62h9.33z"/>
    </g>
</svg>
